<?xml version="1.0" encoding="UTF-8"?>
<!DOCTYPE svg PUBLIC "-//W3C//DTD SVG 1.1//EN" "http://www.w3.org/Graphics/SVG/1.1/DTD/svg11.dtd">
<svg xmlns="http://www.w3.org/2000/svg" version="1.1" width="512px" height="512px" style="shape-rendering:geometricPrecision; text-rendering:geometricPrecision; image-rendering:optimizeQuality; fill-rule:evenodd; clip-rule:evenodd" xmlns:xlink="http://www.w3.org/1999/xlink">
<g><path style="opacity:0.992" fill="#2d8bec" d="M 111.5,-0.5 C 112.833,-0.5 114.167,-0.5 115.5,-0.5C 76.5,37.8333 37.8333,76.5 -0.5,115.5C -0.5,114.167 -0.5,112.833 -0.5,111.5C 8.7041,57.4517 39.3708,21.6184 91.5,4C 98.2585,2.28494 104.925,0.784944 111.5,-0.5 Z"/></g>
<g><path style="opacity:1" fill="#3286e9" d="M 115.5,-0.5 C 133.5,-0.5 151.5,-0.5 169.5,-0.5C 113.167,56.5 56.5,113.167 -0.5,169.5C -0.5,151.5 -0.5,133.5 -0.5,115.5C 37.8333,76.5 76.5,37.8333 115.5,-0.5 Z"/></g>
<g><path style="opacity:1" fill="#3782e6" d="M 169.5,-0.5 C 177.833,-0.5 186.167,-0.5 194.5,-0.5C 129.833,64.8333 64.8333,129.833 -0.5,194.5C -0.5,186.167 -0.5,177.833 -0.5,169.5C 56.5,113.167 113.167,56.5 169.5,-0.5 Z"/></g>
<g><path style="opacity:1" fill="#3b7ee4" d="M 194.5,-0.5 C 211.167,-0.5 227.833,-0.5 244.5,-0.5C 163.167,81.5 81.5,163.167 -0.5,244.5C -0.5,227.833 -0.5,211.167 -0.5,194.5C 64.8333,129.833 129.833,64.8333 194.5,-0.5 Z"/></g>
<g><path style="opacity:1" fill="#4178e1" d="M 244.5,-0.5 C 261.167,-0.5 277.833,-0.5 294.5,-0.5C 196.5,98.1667 98.1667,196.5 -0.5,294.5C -0.5,277.833 -0.5,261.167 -0.5,244.5C 81.5,163.167 163.167,81.5 244.5,-0.5 Z"/></g>
<g><path style="opacity:1" fill="#4773dd" d="M 294.5,-0.5 C 311.167,-0.5 327.833,-0.5 344.5,-0.5C 229.833,114.833 114.833,229.833 -0.5,344.5C -0.5,327.833 -0.5,311.167 -0.5,294.5C 98.1667,196.5 196.5,98.1667 294.5,-0.5 Z"/></g>
<g><path style="opacity:1" fill="#4d6dda" d="M 344.5,-0.5 C 362.833,-0.5 381.167,-0.5 399.5,-0.5C 399.842,0.338246 400.508,0.67158 401.5,0.5C 357.833,44.5 314.167,88.5 270.5,132.5C 253.008,122.942 240.175,127.275 232,145.5C 231.5,153.493 231.334,161.493 231.5,169.5C 214.115,185.884 197.448,202.884 181.5,220.5C 173.256,208.475 162.256,204.975 148.5,210C 142.469,213.694 138.303,218.861 136,225.5C 135.5,239.496 135.333,253.496 135.5,267.5C 91.0346,311.465 46.7013,355.632 2.5,400C 1.90558,400.464 1.23891,400.631 0.5,400.5C 0.5,399.833 0.166667,399.5 -0.5,399.5C -0.5,381.167 -0.5,362.833 -0.5,344.5C 114.833,229.833 229.833,114.833 344.5,-0.5 Z"/></g>
<g><path style="opacity:0.998" fill="#5467d6" d="M 401.5,0.5 C 415.335,2.11386 428.335,6.11386 440.5,12.5C 386.833,65.8333 333.167,119.167 279.5,172.5C 279.666,163.494 279.5,154.494 279,145.5C 277.547,140.223 274.714,135.89 270.5,132.5C 314.167,88.5 357.833,44.5 401.5,0.5 Z"/></g>
<g><path style="opacity:0.999" fill="#5a61d3" d="M 440.5,12.5 C 451.393,17.442 461.06,24.1086 469.5,32.5C 406.5,96.1667 343.167,159.5 279.5,222.5C 279.5,205.833 279.5,189.167 279.5,172.5C 333.167,119.167 386.833,65.8333 440.5,12.5 Z"/></g>
<g><path style="opacity:0.999" fill="#5e5ed1" d="M 469.5,32.5 C 473.167,35.5 476.5,38.8333 479.5,42.5C 478.761,42.369 478.094,42.5357 477.5,43C 411.632,109.035 345.632,174.868 279.5,240.5C 279.5,234.5 279.5,228.5 279.5,222.5C 343.167,159.5 406.5,96.1667 469.5,32.5 Z"/></g>
<g><path style="opacity:0.999" fill="#625acf" d="M 479.5,42.5 C 488.761,52.013 495.761,63.013 500.5,75.5C 454.784,120.216 409.784,165.549 365.5,211.5C 348.146,203.229 335.646,207.895 328,225.5C 327.5,233.159 327.334,240.826 327.5,248.5C 311.5,264.167 295.5,279.833 279.5,295.5C 279.5,277.167 279.5,258.833 279.5,240.5C 345.632,174.868 411.632,109.035 477.5,43C 478.094,42.5357 478.761,42.369 479.5,42.5 Z"/></g>
<g><path style="opacity:0.998" fill="#6855cc" d="M 500.5,75.5 C 504.47,83.4043 507.47,91.7376 509.5,100.5C 465.194,145.473 420.527,190.14 375.5,234.5C 376.257,225.017 372.923,217.35 365.5,211.5C 409.784,165.549 454.784,120.216 500.5,75.5 Z"/></g>
<g><path style="opacity:1" fill="#6d50c9" d="M 509.5,100.5 C 509.808,104.36 510.475,108.026 511.5,111.5C 511.5,124.167 511.5,136.833 511.5,149.5C 465.833,194.833 420.167,240.167 374.5,285.5C 375.472,268.547 375.805,251.547 375.5,234.5C 420.527,190.14 465.194,145.473 509.5,100.5 Z"/></g>
<g><path style="opacity:1" fill="#fefefe" d="M 270.5,132.5 C 274.714,135.89 277.547,140.223 279,145.5C 279.5,154.494 279.666,163.494 279.5,172.5C 279.5,189.167 279.5,205.833 279.5,222.5C 279.5,228.5 279.5,234.5 279.5,240.5C 279.5,258.833 279.5,277.167 279.5,295.5C 279.5,313.833 279.5,332.167 279.5,350.5C 282.063,366.727 275.729,377.56 260.5,383C 256.113,383.706 251.78,383.54 247.5,382.5C 243.302,380.567 239.635,377.901 236.5,374.5C 234.336,371.524 232.836,368.191 232,364.5C 231.5,357.842 231.334,351.175 231.5,344.5C 231.5,336.833 231.5,329.167 231.5,321.5C 231.5,310.833 231.5,300.167 231.5,289.5C 231.5,283.5 231.5,277.5 231.5,271.5C 231.5,254.833 231.5,238.167 231.5,221.5C 231.5,204.167 231.5,186.833 231.5,169.5C 231.334,161.493 231.5,153.493 232,145.5C 240.175,127.275 253.008,122.942 270.5,132.5 Z"/></g>
<g><path style="opacity:1" fill="#724cc6" d="M 511.5,149.5 C 511.5,161.167 511.5,172.833 511.5,184.5C 402.167,293.167 293.167,402.167 184.5,511.5C 172.833,511.5 161.167,511.5 149.5,511.5C 218.5,442.167 287.5,372.833 356.5,303.5C 365.522,300.478 371.522,294.478 374.5,285.5C 420.167,240.167 465.833,194.833 511.5,149.5 Z"/></g>
<g><path style="opacity:1" fill="#5467d7" d="M 231.5,169.5 C 231.5,186.833 231.5,204.167 231.5,221.5C 215.5,237.167 199.5,252.833 183.5,268.5C 183.667,254.163 183.5,239.829 183,225.5C 182.392,223.846 181.892,222.179 181.5,220.5C 197.448,202.884 214.115,185.884 231.5,169.5 Z"/></g>
<g><path style="opacity:1" fill="#7549c4" d="M 511.5,184.5 C 511.5,189.5 511.5,194.5 511.5,199.5C 407.167,303.167 303.167,407.167 199.5,511.5C 194.5,511.5 189.5,511.5 184.5,511.5C 293.167,402.167 402.167,293.167 511.5,184.5 Z"/></g>
<g><path style="opacity:1" fill="#7946c2" d="M 511.5,199.5 C 511.5,216.167 511.5,232.833 511.5,249.5C 423.833,336.5 336.5,423.833 249.5,511.5C 232.833,511.5 216.167,511.5 199.5,511.5C 303.167,407.167 407.167,303.167 511.5,199.5 Z"/></g>
<g><path style="opacity:1" fill="#dbe0f7" d="M 181.5,220.5 C 181.892,222.179 182.392,223.846 183,225.5C 183.5,239.829 183.667,254.163 183.5,268.5C 186.786,285.581 180.453,297.081 164.5,303C 159.796,303.648 155.129,303.481 150.5,302.5C 137.59,294.49 132.59,282.824 135.5,267.5C 135.333,253.496 135.5,239.496 136,225.5C 138.303,218.861 142.469,213.694 148.5,210C 162.256,204.975 173.256,208.475 181.5,220.5 Z"/></g>
<g><path style="opacity:1" fill="#e0dcf4" d="M 365.5,211.5 C 372.923,217.35 376.257,225.017 375.5,234.5C 375.805,251.547 375.472,268.547 374.5,285.5C 371.522,294.478 365.522,300.478 356.5,303.5C 347.935,304.755 340.602,302.422 334.5,296.5C 331.291,293.109 329.124,289.109 328,284.5C 327.5,272.505 327.333,260.505 327.5,248.5C 327.334,240.826 327.5,233.159 328,225.5C 335.646,207.895 348.146,203.229 365.5,211.5 Z"/></g>
<g><path style="opacity:0.999" fill="#5a62d3" d="M 231.5,221.5 C 231.5,238.167 231.5,254.833 231.5,271.5C 165.167,337.5 98.8333,403.5 32.5,469.5C 23.9754,460.63 16.9754,450.63 11.5,439.5C 12.2389,439.631 12.9056,439.464 13.5,439C 59.0346,393.299 104.701,347.799 150.5,302.5C 155.129,303.481 159.796,303.648 164.5,303C 180.453,297.081 186.786,285.581 183.5,268.5C 199.5,252.833 215.5,237.167 231.5,221.5 Z"/></g>
<g><path style="opacity:1" fill="#7f41bf" d="M 511.5,249.5 C 511.5,264.833 511.5,280.167 511.5,295.5C 439.167,367.167 367.167,439.167 295.5,511.5C 280.167,511.5 264.833,511.5 249.5,511.5C 336.5,423.833 423.833,336.5 511.5,249.5 Z"/></g>
<g><path style="opacity:0.998" fill="#5467d6" d="M 135.5,267.5 C 132.59,282.824 137.59,294.49 150.5,302.5C 104.701,347.799 59.0346,393.299 13.5,439C 12.9056,439.464 12.2389,439.631 11.5,439.5C 5.60358,427.142 1.93692,414.142 0.5,400.5C 1.23891,400.631 1.90558,400.464 2.5,400C 46.7013,355.632 91.0346,311.465 135.5,267.5 Z"/></g>
<g><path style="opacity:0.999" fill="#5e5ed1" d="M 231.5,271.5 C 231.5,277.5 231.5,283.5 231.5,289.5C 167.784,352.215 104.784,415.549 42.5,479.5C 38.8333,476.5 35.5,473.167 32.5,469.5C 98.8333,403.5 165.167,337.5 231.5,271.5 Z"/></g>
<g><path style="opacity:1" fill="#6a53cb" d="M 327.5,248.5 C 327.333,260.505 327.5,272.505 328,284.5C 329.124,289.109 331.291,293.109 334.5,296.5C 316.167,314.5 297.833,332.5 279.5,350.5C 279.5,332.167 279.5,313.833 279.5,295.5C 295.5,279.833 311.5,264.167 327.5,248.5 Z"/></g>
<g><path style="opacity:0.999" fill="#615bcf" d="M 231.5,289.5 C 231.5,300.167 231.5,310.833 231.5,321.5C 174.167,378.5 116.833,435.5 59.5,492.5C 53.2547,488.883 47.588,484.549 42.5,479.5C 104.784,415.549 167.784,352.215 231.5,289.5 Z"/></g>
<g><path style="opacity:1" fill="#6e50c8" d="M 334.5,296.5 C 340.602,302.422 347.935,304.755 356.5,303.5C 287.5,372.833 218.5,442.167 149.5,511.5C 139.5,511.5 129.5,511.5 119.5,511.5C 162.167,468.5 204.833,425.5 247.5,382.5C 251.78,383.54 256.113,383.706 260.5,383C 275.729,377.56 282.063,366.727 279.5,350.5C 297.833,332.5 316.167,314.5 334.5,296.5 Z"/></g>
<g><path style="opacity:1" fill="#843cbc" d="M 511.5,295.5 C 511.5,309.167 511.5,322.833 511.5,336.5C 452.833,394.5 394.5,452.833 336.5,511.5C 322.833,511.5 309.167,511.5 295.5,511.5C 367.167,439.167 439.167,367.167 511.5,295.5 Z"/></g>
<g><path style="opacity:0.998" fill="#6458ce" d="M 231.5,321.5 C 231.5,329.167 231.5,336.833 231.5,344.5C 179.167,396.167 127.167,448.167 75.5,500.5C 69.8801,498.357 64.5468,495.69 59.5,492.5C 116.833,435.5 174.167,378.5 231.5,321.5 Z"/></g>
<g><path style="opacity:1" fill="#8839ba" d="M 511.5,336.5 C 511.5,343.5 511.5,350.5 511.5,357.5C 459.833,408.5 408.5,459.833 357.5,511.5C 350.5,511.5 343.5,511.5 336.5,511.5C 394.5,452.833 452.833,394.5 511.5,336.5 Z"/></g>
<g><path style="opacity:0.998" fill="#6855cc" d="M 231.5,344.5 C 231.334,351.175 231.5,357.842 232,364.5C 232.836,368.191 234.336,371.524 236.5,374.5C 191.167,419.167 146.167,464.167 101.5,509.5C 92.3308,507.667 83.6641,504.667 75.5,500.5C 127.167,448.167 179.167,396.167 231.5,344.5 Z"/></g>
<g><path style="opacity:0.998" fill="#8c35b8" d="M 511.5,357.5 C 511.5,371.5 511.5,385.5 511.5,399.5C 510.745,402.053 510.078,404.72 509.5,407.5C 477.283,441.219 444.449,474.552 411,507.5C 410.536,508.094 410.369,508.761 410.5,509.5C 406.64,509.808 402.974,510.475 399.5,511.5C 385.5,511.5 371.5,511.5 357.5,511.5C 408.5,459.833 459.833,408.5 511.5,357.5 Z"/></g>
<g><path style="opacity:0.998" fill="#6b52ca" d="M 236.5,374.5 C 239.635,377.901 243.302,380.567 247.5,382.5C 204.833,425.5 162.167,468.5 119.5,511.5C 116.833,511.5 114.167,511.5 111.5,511.5C 108.344,510.566 105.011,509.899 101.5,509.5C 146.167,464.167 191.167,419.167 236.5,374.5 Z"/></g>
<g><path style="opacity:0.991" fill="#9130b6" d="M 509.5,407.5 C 500.201,452.91 474.201,484.743 431.5,503C 424.558,505.482 417.558,507.648 410.5,509.5C 410.369,508.761 410.536,508.094 411,507.5C 444.449,474.552 477.283,441.219 509.5,407.5 Z"/></g>
</svg>
